/* XPM */
static char * qnetwalk_xpm[] = {
"16 16 27 1",
" 	c None",
".	c #000000",
"+	c #FFFFFF",
"@	c #000D19",
"#	c #001426",
"$	c #001A32",
"%	c #00213F",
"&	c #00284C",
"*	c #002F59",
"=	c #003565",
"-	c #003C72",
";	c #00437F",
">	c #004A8C",
",	c #005098",
"'	c #DCDCDC",
")	c #A0A0A0",
"!	c #0057A5",
"~	c #005EB2",
"{	c #0065BF",
"]	c #006BCB",
"^	c #0072D8",
"/	c #0079E5",
"(	c #0080F2",
"_	c #0086FE",
":	c #808080",
"<	c #00FF00",
"[	c #00C000",
"................",
".++++++++++++++.",
".+@@#$%&*=-;>,+.",
".+@+')&*=-;>,!+.",
".+#')&*=-;>,!~+.",
".+$)&*=-;>,!~{+.",
".+%&*=-;>,!~{]+.",
".+&*=-;>,!~{]^+.",
".+*=-;>,!~{]^/+.",
".+=-;>,!~{]^/(+.",
".+-;>,!~{]^/(_+.",
".++++++++++++++.",
".'''':':':''<['.",
"................",
"    .''''''.    ",
"   ..........   "};
